<svg width="17" height="19" viewBox="0 0 17 19" fill="none" xmlns="http://www.w3.org/2000/svg">
<path d="M16 18V16.1111C16 15.1092 15.6049 14.1483 14.9016 13.4398C14.1984 12.7313 13.2446 12.3333 12.25 12.3333H4.75C3.75544 12.3333 2.80161 12.7313 2.09835 13.4398C1.39509 14.1483 1 15.1092 1 16.1111V18" fill="white"/>
<path d="M16 18V16.1111C16 15.1092 15.6049 14.1483 14.9016 13.4398C14.1984 12.7313 13.2446 12.3333 12.25 12.3333H4.75C3.75544 12.3333 2.80161 12.7313 2.09835 13.4398C1.39509 14.1483 1 15.1092 1 16.1111V18" stroke="#7D7D7D" stroke-width="2" stroke-linecap="round" stroke-linejoin="round"/>
<path d="M8.5 8.55556C10.5711 8.55556 12.25 6.86419 12.25 4.77778C12.25 2.69137 10.5711 1 8.5 1C6.42893 1 4.75 2.69137 4.75 4.77778C4.75 6.86419 6.42893 8.55556 8.5 8.55556Z" fill="white" stroke="#7D7D7D" stroke-width="2" stroke-linecap="round" stroke-linejoin="round"/>
</svg>
